<svg width="70" height="70" viewBox="0 0 70 70" fill="none" xmlns="http://www.w3.org/2000/svg">
<g clip-path="url(#clip0_5_1645)">
<path d="M59.5515 45.2825C57.2873 44.0606 55.8759 41.6951 55.8759 39.1222V35.0322V25.3844C55.8759 15.6423 49.1745 6.50522 40.1443 4.20856C40.1443 4.20856 38.1501 3.53223 35 3.53223C31.8623 3.53223 29.8741 4.20856 29.8741 4.20856C20.853 6.5144 14 15.6515 14 25.3936V35.0322V39.15C14 41.7129 12.5993 44.071 10.3485 45.297L3.5 49.0277V56.0322H66.5V49.0322L59.5515 45.2825ZM28 60.3045C28 63.7073 31.1302 66.4675 35 66.4675C38.8698 66.4675 42 63.712 42 60.3045V59.5322H28V60.3045Z" fill="#04178B"/>
</g>
<defs>
<clipPath id="clip0_5_1645">
<rect width="70" height="70" fill="white"/>
</clipPath>
</defs>
</svg>
