<svg width="30" height="30" viewBox="0 0 30 30" fill="none" xmlns="http://www.w3.org/2000/svg">
<path d="M17.1429 17.1429H12.8572C11.6737 17.1429 10.7143 18.1023 10.7143 19.2857V27.8572C10.7143 29.0406 11.6737 30 12.8572 30H17.1429C18.3263 30 19.2857 29.0406 19.2857 27.8572V19.2857C19.2857 18.1023 18.3263 17.1429 17.1429 17.1429Z" fill="#04178B"/>
<path d="M6.42857 20.3571H2.14286C0.95939 20.3571 0 21.3165 0 22.5V27.8571C0 29.0406 0.95939 30 2.14286 30H6.42857C7.61204 30 8.57143 29.0406 8.57143 27.8571V22.5C8.57143 21.3165 7.61204 20.3571 6.42857 20.3571Z" fill="#04178B"/>
<path d="M27.8571 11.7858H23.5714C22.3879 11.7858 21.4286 12.7452 21.4286 13.9286V27.8572C21.4286 29.0407 22.3879 30.0001 23.5714 30.0001H27.8571C29.0406 30.0001 30 29.0407 30 27.8572V13.9286C30 12.7452 29.0406 11.7858 27.8571 11.7858Z" fill="#04178B"/>
<path d="M26.7857 0H21.4286C21.1444 0 20.8719 0.112882 20.6709 0.313814C20.47 0.514746 20.3571 0.787268 20.3571 1.07143C20.3571 1.35559 20.47 1.62811 20.6709 1.82904C20.8719 2.02997 21.1444 2.14286 21.4286 2.14286H24.3032C21.4169 5.15464 18.1058 7.72828 14.475 9.78214C11.1879 11.6281 7.67191 13.033 4.01785 13.9607C3.76362 14.0244 3.54155 14.1791 3.39366 14.3954C3.24577 14.6118 3.18232 14.8749 3.21531 15.1349C3.24831 15.3949 3.37546 15.6338 3.57271 15.8064C3.76996 15.979 4.02363 16.0733 4.28571 16.0714C4.37591 16.0707 4.46575 16.0599 4.55357 16.0393C8.38846 15.0653 12.0776 13.5882 15.525 11.6464C19.2821 9.52189 22.7137 6.86752 25.7143 3.765V6.42857C25.7143 6.71273 25.8272 6.98525 26.0281 7.18619C26.229 7.38712 26.5015 7.5 26.7857 7.5C27.0699 7.5 27.3424 7.38712 27.5433 7.18619C27.7443 6.98525 27.8571 6.71273 27.8571 6.42857V1.07143C27.8571 0.787268 27.7443 0.514746 27.5433 0.313814C27.3424 0.112882 27.0699 0 26.7857 0Z" fill="#04178B"/>
</svg>
