<svg width="420" height="429" viewBox="0 0 420 429" fill="none" xmlns="http://www.w3.org/2000/svg">
<path d="M346.92 113.256H345.24C345.24 111.54 345.66 109.395 345.66 107.679C345.66 75.504 320.88 48.906 289.8 46.761C278.04 23.595 254.52 8.58002 228.9 8.58002H228.48C200.34 8.58002 175.14 25.74 164.64 51.909C157.08 48.477 148.68 46.332 139.86 46.332H139.44C109.2 46.332 84.0004 69.069 80.2204 99.099H79.8004C40.7404 99.099 8.40039 131.703 8.40039 171.6C8.40039 211.926 39.9004 244.53 79.3804 244.959H97.4404V131.703C97.4404 112.398 112.98 96.525 131.88 96.525H287.7C306.6 96.525 322.14 112.398 322.14 131.703V245.388H346.5C363.72 245.388 379.68 238.524 391.86 226.083C398.16 220.077 402.78 212.784 406.14 204.633C409.5 196.911 411.18 188.331 411.18 179.322C411.18 161.733 404.46 145.002 392.28 132.561C380.52 120.12 364.14 113.256 346.92 113.256Z" fill="#06002E"/>
<path d="M210 394.251C214.639 394.251 218.4 390.41 218.4 385.671C218.4 380.932 214.639 377.091 210 377.091C205.36 377.091 201.6 380.932 201.6 385.671C201.6 390.41 205.36 394.251 210 394.251Z" fill="#06002E"/>
<path d="M288.12 105.534H131.88C117.6 105.534 105.84 117.546 105.84 132.132V394.251C105.84 408.837 117.6 420.42 131.88 420.42H287.7C301.98 420.42 313.74 408.408 313.74 394.251V131.703C313.74 117.117 302.4 105.534 288.12 105.534ZM210 402.831C200.76 402.831 193.2 395.109 193.2 385.671C193.2 376.233 200.76 368.511 210 368.511C219.24 368.511 226.8 376.233 226.8 385.671C226.8 395.109 219.24 402.831 210 402.831ZM274.68 351.351H145.32V145.431H274.68V351.351Z" fill="#06002E"/>
<path d="M166.74 238.524C190.68 214.071 229.32 214.071 253.26 238.524C254.1 239.382 255.36 239.811 256.2 239.811C257.04 239.811 258.3 239.382 259.14 238.524C260.82 236.808 260.82 234.234 259.14 232.518C231.84 204.633 187.74 204.633 160.86 232.518C159.18 234.234 159.18 236.808 160.86 238.524C162.54 240.24 165.06 240.24 166.74 238.524Z" fill="#06002E"/>
<path d="M210 229.515C196.14 229.515 182.7 235.092 173.04 244.959C171.36 246.675 171.36 249.249 173.04 250.965C174.72 252.681 177.24 252.681 178.92 250.965C187.32 242.385 198.24 237.666 210 237.666C221.76 237.666 232.68 242.385 241.08 250.965C241.92 251.823 243.18 252.252 244.02 252.252C244.86 252.252 246.12 251.823 246.96 250.965C248.64 249.249 248.64 246.675 246.96 244.959C237.3 235.092 223.86 229.515 210 229.515Z" fill="#06002E"/>
<path d="M210 247.104C200.76 247.104 191.94 250.965 185.22 257.4C183.54 259.116 183.54 261.69 185.22 263.406C186.9 265.122 189.42 265.122 191.1 263.406C196.14 258.258 202.86 255.684 210 255.684C217.14 255.684 223.86 258.687 228.9 263.406C229.74 264.264 231 264.693 231.84 264.693C232.68 264.693 233.94 264.264 234.78 263.406C236.46 261.69 236.46 259.116 234.78 257.4C228.06 250.536 219.24 247.104 210 247.104Z" fill="#06002E"/>
<path d="M209.16 264.264C200.76 265.122 194.88 272.415 195.72 280.566C196.14 284.427 197.82 288.288 201.18 290.862C203.7 293.007 207.06 294.294 210.84 294.294H212.1C215.88 293.865 219.66 292.149 222.18 289.146C224.28 286.143 225.54 282.711 225.54 279.279V277.992C224.7 269.841 217.56 263.406 209.16 264.264Z" fill="#06002E"/>
</svg>
