<svg width="30" height="30" viewBox="0 0 30 30" fill="none" xmlns="http://www.w3.org/2000/svg">
<mask id="mask0_24_66" style="mask-type:luminance" maskUnits="userSpaceOnUse" x="0" y="0" width="30" height="30">
<path d="M30 0H0V30H30V0Z" fill="white"/>
</mask>
<g mask="url(#mask0_24_66)">
<path fill-rule="evenodd" clip-rule="evenodd" d="M5.13555 10.6134C5.13555 10.6134 4.754 8.51625 4.47743 6.99656C4.23462 5.65969 3.07024 4.6875 1.71087 4.6875C1.28149 4.6875 0.931812 4.6875 0.931812 4.6875V6.5625C0.931812 6.5625 1.28149 6.5625 1.71087 6.5625C2.16368 6.5625 2.55181 6.88687 2.63338 7.33219C2.909 8.85187 3.29057 10.9491 3.29057 10.9491C3.38338 11.4581 3.87181 11.7966 4.38087 11.7037C4.88994 11.6109 5.22837 11.1225 5.13555 10.6134Z" fill="#04178B"/>
<path fill-rule="evenodd" clip-rule="evenodd" d="M1.58109 4.6875H0.937499C0.420054 4.6875 -0.000209808 5.1075 -0.000209808 5.625C-0.000209808 6.1425 0.420054 6.5625 0.937499 6.5625H1.58109C2.09853 6.5625 2.5188 6.1425 2.5188 5.625C2.5188 5.1075 2.09853 4.6875 1.58109 4.6875Z" fill="#04178B"/>
<path fill-rule="evenodd" clip-rule="evenodd" d="M19.9154 24.3743C18.3634 24.3743 17.1032 25.6345 17.1032 27.1865C17.1032 28.7398 18.3634 29.9999 19.9154 29.9999C21.4686 29.9999 22.7288 28.7398 22.7288 27.1865C22.7288 25.6345 21.4686 24.3743 19.9154 24.3743ZM19.9154 26.2499C20.4331 26.2499 20.8532 26.67 20.8532 27.1865C20.8532 27.7043 20.4331 28.1243 19.9154 28.1243C19.3988 28.1243 18.9788 27.7043 18.9788 27.1865C18.9788 26.67 19.3988 26.2499 19.9154 26.2499Z" fill="#04178B"/>
<path fill-rule="evenodd" clip-rule="evenodd" d="M7.72892 24.3743C6.1769 24.3743 4.91674 25.6345 4.91674 27.1865C4.91674 28.7398 6.1769 29.9999 7.72892 29.9999C9.28215 29.9999 10.5423 28.7398 10.5423 27.1865C10.5423 25.6345 9.28215 24.3743 7.72892 24.3743ZM7.72892 26.2499C8.24666 26.2499 8.66673 26.67 8.66673 27.1865C8.66673 27.7043 8.24666 28.1243 7.72892 28.1243C7.21239 28.1243 6.79234 27.7043 6.79234 27.1865C6.79234 26.67 7.21239 26.2499 7.72892 26.2499Z" fill="#04178B"/>
<path fill-rule="evenodd" clip-rule="evenodd" d="M7.7287 20.6251H5.8537C5.10746 20.6251 4.39214 20.9213 3.86527 21.4491C3.33745 21.976 3.04121 22.6913 3.04121 23.4376C3.04121 24.1838 3.33745 24.8991 3.86527 25.426C4.39214 25.9538 5.10746 26.2501 5.8537 26.2501C10.0668 26.2501 19.9162 26.2501 19.9162 26.2501C20.4337 26.2501 20.8537 25.8301 20.8537 25.3126C20.8537 24.7951 20.4337 24.3751 19.9162 24.3751C19.9162 24.3751 10.0668 24.3751 5.8537 24.3751C5.60527 24.3751 5.3662 24.2766 5.19089 24.1004C5.01464 23.9251 4.91621 23.686 4.91621 23.4376C4.91621 23.1891 5.01464 22.9501 5.19089 22.7747C5.3662 22.5985 5.60527 22.5001 5.8537 22.5001H7.7287C8.2462 22.5001 8.6662 22.0801 8.6662 21.5626C8.6662 21.0451 8.2462 20.6251 7.7287 20.6251Z" fill="#04178B"/>
<path fill-rule="evenodd" clip-rule="evenodd" d="M12.4161 9.375V21.5625C12.4161 22.08 12.8361 22.5 13.3536 22.5C13.8711 22.5 14.2911 22.08 14.2911 21.5625V9.375C14.2911 8.8575 13.8711 8.4375 13.3536 8.4375C12.8361 8.4375 12.4161 8.8575 12.4161 9.375Z" fill="#04178B"/>
<path fill-rule="evenodd" clip-rule="evenodd" d="M7.26667 9.48282L8.67292 21.6703C8.73199 22.1841 9.19699 22.5534 9.71167 22.4934C10.2254 22.4344 10.5948 21.9694 10.5348 21.4547L9.12854 9.26719C9.06948 8.75344 8.60448 8.38407 8.08979 8.44407C7.57604 8.50313 7.20667 8.96814 7.26667 9.48282Z" fill="#04178B"/>
<path fill-rule="evenodd" clip-rule="evenodd" d="M18.0345 21.6695L19.0086 13.232C19.0676 12.7173 18.6983 12.2523 18.1845 12.1932C17.6708 12.1332 17.2048 12.5026 17.1458 13.0163L16.1727 21.4538C16.1127 21.9685 16.482 22.4335 16.9958 22.4926C17.5105 22.5526 17.9755 22.1832 18.0345 21.6695Z" fill="#04178B"/>
<path fill-rule="evenodd" clip-rule="evenodd" d="M5.38526 18.75H21.3228C21.8399 18.75 22.2604 18.33 22.2604 17.8125C22.2604 17.295 21.8399 16.875 21.3228 16.875H5.38526C4.86818 16.875 4.4476 17.295 4.4476 17.8125C4.4476 18.33 4.86818 18.75 5.38526 18.75Z" fill="#04178B"/>
<path fill-rule="evenodd" clip-rule="evenodd" d="M4.91611 14.0633H17.8124C18.3299 14.0633 18.7499 13.6433 18.7499 13.1258C18.7499 12.6083 18.3299 12.1883 17.8124 12.1883H4.91611C4.39861 12.1883 3.97861 12.6083 3.97861 13.1258C3.97861 13.6433 4.39861 14.0633 4.91611 14.0633Z" fill="#04178B"/>
<path fill-rule="evenodd" clip-rule="evenodd" d="M22.5002 -0.000366211C18.3611 -0.000366211 14.9999 3.36083 14.9999 7.49997C14.9999 11.6391 18.3611 15.0003 22.5002 15.0003C26.6394 15.0003 30.0006 11.6391 30.0006 7.49997C30.0006 3.36083 26.6394 -0.000366211 22.5002 -0.000366211ZM22.5002 1.87532C25.6049 1.87532 28.1249 4.39531 28.1249 7.49997C28.1249 10.6046 25.6049 13.1246 22.5002 13.1246C19.3956 13.1246 16.8756 10.6046 16.8756 7.49997C16.8756 4.39531 19.3956 1.87532 22.5002 1.87532Z" fill="#04178B"/>
<path fill-rule="evenodd" clip-rule="evenodd" d="M21.5625 4.68752V10.3125C21.5625 10.83 21.9825 11.2503 22.5 11.2503C23.0175 11.2503 23.4375 10.83 23.4375 10.3125V4.68752C23.4375 4.17002 23.0175 3.74976 22.5 3.74976C21.9825 3.74976 21.5625 4.17002 21.5625 4.68752Z" fill="#04178B"/>
<path fill-rule="evenodd" clip-rule="evenodd" d="M21.8371 4.02445L19.9621 5.89945C19.596 6.26554 19.5963 6.85924 19.9622 7.22517C20.3281 7.5911 20.9218 7.59137 21.2879 7.22527L23.1629 5.35027C23.529 4.98418 23.5287 4.39047 23.1628 4.02455C22.7969 3.65862 22.2032 3.65835 21.8371 4.02445Z" fill="#04178B"/>
<path fill-rule="evenodd" clip-rule="evenodd" d="M21.8371 5.35027L23.7121 7.22527C24.0782 7.59137 24.6719 7.5911 25.0378 7.22517C25.4037 6.85924 25.404 6.26554 25.0379 5.89945L23.1629 4.02445C22.7968 3.65835 22.2031 3.65862 21.8372 4.02455C21.4713 4.39047 21.471 4.98418 21.8371 5.35027Z" fill="#04178B"/>
<path fill-rule="evenodd" clip-rule="evenodd" d="M6.65812 20.625H19.6519C20.1272 20.625 20.5284 20.2678 20.5828 19.7953L21.2578 13.9481C21.3169 13.4334 21.7819 13.065 22.2966 13.1241C22.8103 13.1831 23.1797 13.6491 23.1197 14.1628L22.4456 20.01C22.2815 21.4294 21.0797 22.5 19.6519 22.5H5.85375C5.39062 22.5 4.99781 22.1625 4.9275 21.705L3.0525 9.5175C3.01031 9.2475 3.08906 8.97187 3.26719 8.76469C3.44531 8.55656 3.705 8.4375 3.97875 8.4375H16.2094C16.7269 8.4375 17.1469 8.8575 17.1469 9.375C17.1469 9.8925 16.7269 10.3125 16.2094 10.3125H5.07187L6.65812 20.625Z" fill="#04178B"/>
<path fill-rule="evenodd" clip-rule="evenodd" d="M15.3112 9.64311C16.2019 12.6309 18.9065 14.8406 22.1447 14.9916C22.6622 15.0159 23.1009 14.6156 23.1253 14.0991C23.1497 13.5825 22.7494 13.1428 22.2328 13.1184C19.8037 13.005 17.7759 11.3484 17.1084 9.10686C16.9603 8.61093 16.4381 8.32874 15.9422 8.47686C15.4462 8.62405 15.1631 9.14718 15.3112 9.64311Z" fill="#04178B"/>
</g>
</svg>
