<svg width="35" height="35" viewBox="0 0 35 35" fill="none" xmlns="http://www.w3.org/2000/svg">
<path d="M17.5 2.91669C14.6157 2.91669 11.7962 3.77198 9.39796 5.37442C6.99974 6.97686 5.13056 9.25446 4.02678 11.9192C2.92301 14.584 2.63421 17.5162 3.19691 20.3451C3.75961 23.174 5.14854 25.7725 7.18805 27.812C9.22757 29.8515 11.8261 31.2404 14.655 31.8031C17.4838 32.3658 20.4161 32.077 23.0808 30.9733C25.7456 29.8695 28.0232 28.0003 29.6256 25.6021C31.2281 23.2039 32.0834 20.3843 32.0834 17.5C32.0834 15.5849 31.7062 13.6886 30.9733 11.9192C30.2404 10.1499 29.1662 8.54223 27.812 7.18805C26.4578 5.83386 24.8502 4.75966 23.0808 4.02678C21.3115 3.2939 19.4151 2.91669 17.5 2.91669ZM17.5 29.1667C15.1926 29.1667 12.9369 28.4824 11.0184 27.2005C9.0998 25.9185 7.60445 24.0965 6.72143 21.9647C5.83841 19.8329 5.60737 17.4871 6.05753 15.224C6.50769 12.9609 7.61883 10.8821 9.25045 9.25044C10.8821 7.61883 12.9609 6.50769 15.224 6.05753C17.4871 5.60736 19.8329 5.8384 21.9647 6.72143C24.0965 7.60445 25.9186 9.09979 27.2005 11.0184C28.4825 12.9369 29.1667 15.1926 29.1667 17.5C29.1667 20.5942 27.9375 23.5617 25.7496 25.7496C23.5617 27.9375 20.5942 29.1667 17.5 29.1667ZM23.3334 16.0417H18.9584V11.6667C18.9584 11.2799 18.8047 10.909 18.5312 10.6355C18.2577 10.362 17.8868 10.2084 17.5 10.2084C17.1133 10.2084 16.7423 10.362 16.4688 10.6355C16.1953 10.909 16.0417 11.2799 16.0417 11.6667V16.0417H11.6667C11.2799 16.0417 10.909 16.1953 10.6355 16.4688C10.362 16.7423 10.2084 17.1132 10.2084 17.5C10.2084 17.8868 10.362 18.2577 10.6355 18.5312C10.909 18.8047 11.2799 18.9584 11.6667 18.9584H16.0417V23.3334C16.0417 23.7201 16.1953 24.0911 16.4688 24.3646C16.7423 24.638 17.1133 24.7917 17.5 24.7917C17.8868 24.7917 18.2577 24.638 18.5312 24.3646C18.8047 24.0911 18.9584 23.7201 18.9584 23.3334V18.9584H23.3334C23.7201 18.9584 24.0911 18.8047 24.3646 18.5312C24.638 18.2577 24.7917 17.8868 24.7917 17.5C24.7917 17.1132 24.638 16.7423 24.3646 16.4688C24.0911 16.1953 23.7201 16.0417 23.3334 16.0417Z" fill="#04178B"/>
</svg>
