<svg width="34" height="34" viewBox="0 0 34 34" fill="none" xmlns="http://www.w3.org/2000/svg">
<path d="M12.75 3.1875C12.1709 3.1875 11.6875 3.67094 11.6875 4.25H6.90625C6.03287 4.25 5.3125 4.97037 5.3125 5.84375V30.2812C5.3125 31.1546 6.03287 31.875 6.90625 31.875H26.0312C26.9046 31.875 27.625 31.1546 27.625 30.2812V5.84375C27.625 4.97037 26.9046 4.25 26.0312 4.25H21.25C21.25 3.67094 20.7666 3.1875 20.1875 3.1875H12.75ZM12.75 4.25H20.1875V6.38775H12.75V4.25ZM6.90625 5.3125H7.47256C7.27644 5.60392 7.17174 5.94723 7.17188 6.2985V22.1446C7.16125 22.8629 8.245 22.8629 8.23438 22.1446V6.2985C8.23438 5.8905 8.54569 5.57812 8.95475 5.57812H11.6875V6.38775C11.6875 6.96681 12.1709 7.45025 12.75 7.45025H20.1875C20.7666 7.45025 21.25 6.96681 21.25 6.38775V5.57812H23.9827C24.3918 5.57812 24.7031 5.8905 24.7031 6.2985V23.6013H22.7301C21.9289 23.6013 21.3818 24.0763 21.1608 24.5119C20.9398 24.9486 20.9472 25.3693 20.9472 25.3693V27.3562H8.95475C8.85954 27.3581 8.76494 27.3407 8.67661 27.3051C8.58829 27.2695 8.50808 27.2164 8.44079 27.149C8.37351 27.0816 8.32054 27.0013 8.28507 26.913C8.24959 26.8246 8.23235 26.73 8.23438 26.6348V24.2898C8.245 23.5716 7.16125 23.5716 7.17188 24.2898V26.6348C7.17188 27.6133 7.97619 28.4176 8.95475 28.4176H21.4784L21.4891 28.4155C21.5551 28.4145 21.6203 28.4011 21.6814 28.3762L21.6835 28.3741C21.7468 28.3482 21.8045 28.3103 21.8535 28.2625L25.6105 24.5076C25.6593 24.4582 25.6979 24.3998 25.7242 24.3355L25.7263 24.3312C25.752 24.2682 25.7654 24.2007 25.7656 24.1326V6.2985C25.7656 5.93406 25.6541 5.59512 25.4649 5.3125H26.0312C26.3351 5.3125 26.5625 5.53988 26.5625 5.84375V30.2812C26.5625 30.5851 26.3351 30.8125 26.0312 30.8125H6.90625C6.83601 30.8142 6.76614 30.8017 6.7009 30.7756C6.63565 30.7495 6.57639 30.7105 6.5267 30.6608C6.47702 30.6111 6.43795 30.5518 6.41187 30.4866C6.3858 30.4214 6.37325 30.3515 6.375 30.2812V5.84375C6.375 5.53988 6.60238 5.3125 6.90625 5.3125ZM9.53806 8.47769V14.875H15.9375V8.47769H9.53806ZM17 8.5V9.5625H23.9062V8.5H17ZM10.6006 9.54019H14.875V13.8125H10.6006V9.54019ZM11.5781 10.0938C11.4372 10.0938 11.302 10.1497 11.2024 10.2493C11.1028 10.349 11.0468 10.4841 11.0468 10.625C11.0468 10.7659 11.1028 10.901 11.2024 11.0007C11.302 11.1003 11.4372 11.1562 11.5781 11.1562C11.719 11.1562 11.8541 11.1003 11.9537 11.0007C12.0533 10.901 12.1093 10.7659 12.1093 10.625C12.1093 10.4841 12.0533 10.349 11.9537 10.2493C11.8541 10.1497 11.719 10.0938 11.5781 10.0938ZM13.3471 10.625L12.6395 12.0402L12.2846 11.3326L11.577 12.75H14.4096L13.3471 10.625ZM17 10.625V11.6875H23.9062V10.625H17ZM17 12.75V13.8125H23.9062V12.75H17ZM9.5625 15.9375V17H23.9062V15.9375H9.5625ZM9.5625 18.0625V19.125H23.9062V18.0625H9.5625ZM9.5625 20.1875V21.25H16.7344V20.1875H9.5625ZM22.7301 24.6638H23.9519L22.9808 25.6328L22.0097 26.6039V25.3693C22.0097 25.3693 22.0171 25.1738 22.1096 24.9911C22.2009 24.8104 22.2785 24.6638 22.7301 24.6638Z" fill="#04178B"/>
</svg>
