<svg width="35" height="31" viewBox="0 0 35 31" fill="none" xmlns="http://www.w3.org/2000/svg">
<path d="M15.2174 18.7011C15.2174 18.0608 14.6087 17.5217 13.8859 17.5217H8.94022C8.21739 17.5217 7.6087 18.0608 7.6087 18.7011V23.0815C7.6087 23.7217 8.21739 24.2608 8.94022 24.2608H13.8859C14.6087 24.2608 15.2174 23.7217 15.2174 23.0815V18.7011ZM10.2717 19.8804H12.5543V21.9022H10.2717V19.8804ZM34.5815 8.55867L31.1957 5.52606V2.02172C31.1957 1.28041 30.5109 0.673889 29.6359 0.673889H5.36413C4.48913 0.673889 3.80435 1.28041 3.80435 2.02172V5.52606L0.418478 8.55867C0.152174 8.79454 0 9.1315 0 9.50215V12.9391C0 13.6804 0.684783 14.1522 1.52174 14.1522H33.4783C34.3152 14.1522 35 13.6804 35 12.9054V9.50215C35 9.1315 34.8478 8.79454 34.5815 8.55867ZM28.1522 3.36954V5.05432H6.84783V3.36954H28.1522ZM31.9565 11.4565H3.04348V10.0413L6.16304 7.41302H28.837L31.9565 10.0413V11.4565ZM32.7174 16.8815V28.9782C32.7174 29.7195 32.0326 30.3261 31.1957 30.3261H25.9837C25.1467 30.3261 24.462 29.7869 24.462 29.0456V21.9022H20.9239V28.9782C20.9239 29.7195 20.2011 30.3261 19.3641 30.3261H3.84239C3.00543 30.3261 2.28261 29.7195 2.28261 28.9782V16.8815C2.28261 16.1402 2.96739 15.5337 3.80435 15.5337C4.6413 15.5337 5.32609 16.1402 5.32609 16.8815V27.6304H17.8804V20.4195C17.8804 19.6782 18.5272 19.2065 19.3641 19.2065H25.9457C26.7826 19.2065 27.3533 19.6782 27.3533 20.4195V27.6304H29.6359V16.8815C29.6359 16.1402 30.3207 15.5337 31.1576 15.5337C31.9946 15.5337 32.7174 16.1402 32.7174 16.8815Z" fill="#04178B"/>
</svg>
