<svg width="35" height="31" viewBox="0 0 35 31" fill="none" xmlns="http://www.w3.org/2000/svg">
<path d="M30.9496 9.29395V25.687C30.9496 26.4408 30.9394 27.1977 30.9496 27.9515V27.9817L32.6586 26.4681H3.57853C3.18547 26.4681 2.7924 26.465 2.39933 26.4681H2.34806L4.05705 27.9817V11.5887C4.05705 10.8349 4.0673 10.078 4.05705 9.32422V9.29395L2.34806 10.8076H31.4281C31.8212 10.8076 32.2143 10.8106 32.6073 10.8076H32.6586C33.0961 10.8076 33.5575 10.6381 33.8686 10.3656C34.1659 10.1022 34.3881 9.67237 34.3676 9.29395C34.3471 8.90342 34.2035 8.49776 33.8686 8.22227C33.5336 7.94981 33.1235 7.78028 32.6586 7.78028H3.57853C3.18547 7.78028 2.7924 7.77725 2.39933 7.78028H2.34806C1.42521 7.78028 0.639079 8.47354 0.639079 9.29395V25.687C0.639079 26.4408 0.628825 27.1977 0.639079 27.9515V27.9817C0.639079 28.7991 1.42179 29.4954 2.34806 29.4954H31.4281C31.8212 29.4954 32.2143 29.4984 32.6073 29.4954H32.6586C33.5815 29.4954 34.3676 28.8022 34.3676 27.9817V11.5887C34.3676 10.8349 34.3778 10.078 34.3676 9.32422V9.29395C34.3676 8.90645 34.1762 8.49776 33.8686 8.22227C33.5712 7.95889 33.0859 7.76211 32.6586 7.78028C32.2177 7.79844 31.7597 7.92559 31.4486 8.22227C31.1444 8.52198 30.9496 8.88526 30.9496 9.29395Z" fill="#04178B"/>
<path d="M32.6588 7.78331H3.57871C3.18564 7.78331 2.79258 7.78028 2.39951 7.78331H2.34824C2.75156 8.6461 3.15488 9.50587 3.5582 10.3687L5.81406 8.24346C7.01377 7.11426 8.21348 5.98809 9.40977 4.85889C9.6832 4.60157 9.96006 4.34122 10.2335 4.08389C9.83018 4.23223 9.42686 4.38057 9.02354 4.52589H23.9054C24.589 4.52589 25.2726 4.53497 25.9562 4.52589H25.9869C25.5836 4.37755 25.1803 4.22921 24.777 4.08389L27.0328 6.20909C28.2325 7.33829 29.4322 8.46446 30.6285 9.59366C30.902 9.85098 31.1788 10.1113 31.4522 10.3687C31.7462 10.6472 32.235 10.8107 32.6622 10.8107C33.0826 10.8107 33.5816 10.6472 33.8722 10.3687C34.1695 10.0811 34.3917 9.70264 34.3712 9.29698C34.3507 8.88829 34.19 8.52804 33.8722 8.2253C33.192 7.58653 32.5152 6.94776 31.8351 6.30899C30.6764 5.21915 29.5211 4.1293 28.3624 3.04249C28.0172 2.71553 27.6686 2.39161 27.3233 2.06466C26.9713 1.73165 26.5338 1.50762 25.9835 1.49854H9.54307C9.23545 1.49854 8.86289 1.46827 8.56895 1.55303C7.98106 1.72257 7.65635 2.0919 7.25645 2.46729C6.17979 3.47842 5.10654 4.48956 4.02988 5.50372C3.11387 6.36651 2.19785 7.22628 1.28184 8.08907C1.23398 8.13448 1.18271 8.18292 1.13486 8.22833C0.659765 8.67637 0.509375 9.31212 0.782812 9.88126C1.046 10.4292 1.65781 10.8107 2.34482 10.8107H31.4249C31.818 10.8107 32.211 10.8137 32.6041 10.8107H32.6554C33.0929 10.8107 33.5543 10.6411 33.8653 10.3687C34.1627 10.1053 34.3849 9.6754 34.3644 9.29698C34.3439 8.90645 34.2003 8.50079 33.8653 8.2253C33.5338 7.95587 33.1236 7.78331 32.6588 7.78331Z" fill="#04178B"/>
<path d="M19.5645 9.29392V17.5949C20.4224 17.159 21.2803 16.723 22.1348 16.2871C21.0068 15.7634 19.8789 15.2396 18.7476 14.7159C18.604 14.6493 18.4604 14.5797 18.3135 14.5131C18.0469 14.395 17.7563 14.2921 17.4487 14.3042C17.1343 14.3163 16.8677 14.3829 16.584 14.51C16.5703 14.5161 16.5566 14.5221 16.543 14.5312C16.4678 14.5676 16.3892 14.6009 16.314 14.6372C15.6577 14.9429 15.0015 15.2457 14.3452 15.5514C13.8188 15.7967 13.2925 16.0419 12.7627 16.2841C13.6206 16.72 14.4785 17.1559 15.333 17.5919V9.2909L13.624 10.8046H21.27C21.7075 10.8046 22.1689 10.635 22.48 10.3626C22.7773 10.0992 22.9995 9.66931 22.979 9.2909C22.9585 8.90037 22.8149 8.49471 22.48 8.21922C22.145 7.94676 21.7349 7.77722 21.27 7.77722H13.624C12.7012 7.77722 11.915 8.47049 11.915 9.2909V17.5919C11.915 18.1247 12.2432 18.6303 12.7627 18.8997C13.3096 19.1843 13.9385 19.154 14.4888 18.8997C15.603 18.382 16.7207 17.8643 17.835 17.3467C17.9956 17.274 18.1528 17.1983 18.3135 17.1257H16.5874C17.7017 17.6433 18.8193 18.161 19.9336 18.6787C20.0942 18.7513 20.2515 18.827 20.4121 18.8997C20.959 19.154 21.5913 19.1843 22.1382 18.8997C22.6577 18.6303 22.9858 18.1277 22.9858 17.5919V9.2909C22.9858 8.9034 22.7944 8.49471 22.4868 8.21922C22.1895 7.95584 21.7041 7.75906 21.2769 7.77722C20.8359 7.79539 20.3779 7.92254 20.0669 8.21922C19.7593 8.52195 19.5645 8.88523 19.5645 9.29392Z" fill="#04178B"/>
</svg>
