<svg width="33" height="29" viewBox="0 0 33 29" fill="none" xmlns="http://www.w3.org/2000/svg">
<path d="M7.79878 15.417C7.70317 15.417 7.60971 15.4456 7.53022 15.4991C7.45072 15.5526 7.38876 15.6286 7.35218 15.7175C7.31559 15.8065 7.30602 15.9043 7.32467 15.9988C7.34332 16.0932 7.38936 16.1799 7.45696 16.248C7.52457 16.3161 7.6107 16.3624 7.70447 16.3812C7.79824 16.4 7.89544 16.3903 7.98377 16.3535C8.0721 16.3167 8.1476 16.2543 8.20071 16.1742C8.25383 16.0942 8.28218 16.0001 8.28218 15.9038C8.28218 15.7747 8.23125 15.6509 8.1406 15.5596C8.04994 15.4683 7.92699 15.417 7.79878 15.417ZM25.2012 15.417C25.1056 15.417 25.0121 15.4456 24.9327 15.4991C24.8532 15.5526 24.7912 15.6286 24.7546 15.7175C24.718 15.8065 24.7085 15.9043 24.7271 15.9988C24.7458 16.0932 24.7918 16.1799 24.8594 16.248C24.927 16.3161 25.0131 16.3624 25.1069 16.3812C25.2007 16.4 25.2979 16.3903 25.3862 16.3535C25.4745 16.3167 25.55 16.2543 25.6032 16.1742C25.6563 16.0942 25.6846 16.0001 25.6846 15.9038C25.6846 15.7747 25.6337 15.6509 25.543 15.5596C25.4524 15.4683 25.3294 15.417 25.2012 15.417ZM21.7433 14.8005C21.8877 14.8005 21.9695 14.6447 21.9695 14.4643C21.9695 14.3085 21.9018 14.1398 21.7433 14.1398H20.032C19.8683 14.1398 19.7046 14.2177 19.7046 14.3734V17.4614C19.7046 17.6172 19.8683 17.6951 20.032 17.6951H21.7433C21.9018 17.6951 21.9695 17.5244 21.9695 17.3706C21.9695 17.1908 21.8877 17.035 21.7433 17.035H20.4542V16.2036H21.1755C21.334 16.2036 21.4017 16.0479 21.4017 15.9161C21.4017 15.7604 21.3198 15.6195 21.1755 15.6195H20.4549V14.8005H21.7433ZM11.5306 15.0406C11.5306 14.8894 11.6699 14.7486 12.0115 14.7486C12.4059 14.7486 12.4974 14.9329 12.6702 14.9329C12.8816 14.9329 12.9686 14.6655 12.9686 14.5344C12.9686 14.1547 12.2661 14.106 12.0115 14.106C11.4108 14.106 10.7804 14.3832 10.7804 15.1133C10.7804 16.2523 12.3047 16.1517 12.3047 16.7391C12.3047 16.9727 12.0598 17.0603 11.8381 17.0603C11.3914 17.0603 11.247 16.7001 11.0208 16.7001C10.8384 16.7001 10.694 16.9435 10.694 17.109C10.694 17.4303 11.2232 17.7418 11.8542 17.7418C12.5516 17.7418 13.0563 17.3621 13.0563 16.6612C13.055 15.4346 11.5306 15.5274 11.5306 15.0406ZM31.7916 15.8681L32.9769 12.1571C33.0001 12.0841 33.0059 12.0065 32.9938 11.9308C32.9816 11.8552 32.952 11.7834 32.9071 11.7214C32.8623 11.6595 32.8036 11.609 32.7357 11.5742C32.6679 11.5394 32.5928 11.5212 32.5167 11.521H28.4194C28.5728 11.0284 28.6508 10.5378 28.4361 10.0887C28.1371 9.46044 27.3997 9.21836 26.7487 9.00419C26.3298 8.86595 25.8554 8.71019 25.6859 8.49537C25.5164 8.28054 25.4687 7.77172 25.4281 7.32715C25.3636 6.6074 25.2953 5.86364 24.7597 5.43075C24.2241 4.99786 23.461 5.09975 22.7881 5.19061C22.3479 5.24967 21.849 5.31652 21.5989 5.19451C21.3488 5.07249 21.1033 4.6461 20.879 4.26643C20.5258 3.66999 20.1262 2.99437 19.4475 2.83861C18.7913 2.68804 18.1816 3.09367 17.5918 3.48762C17.1967 3.74722 16.7881 4.0224 16.5 4.0224C16.2119 4.0224 15.8033 3.75046 15.4082 3.48762C14.8184 3.09821 14.2087 2.68933 13.5525 2.83861C12.8738 2.99502 12.4742 3.67064 12.121 4.26643C11.8967 4.6461 11.6415 5.07704 11.4011 5.19451C11.1607 5.31198 10.6521 5.24967 10.2119 5.19061C9.53774 5.09975 8.77396 4.99591 8.24029 5.4288C7.70661 5.86169 7.63765 6.60545 7.57255 7.32455C7.53194 7.77107 7.48618 8.27795 7.31474 8.49277C7.14329 8.70759 6.6702 8.86335 6.2519 9.00159C5.60092 9.21576 4.86357 9.4559 4.56451 10.0861C4.34988 10.5352 4.42786 11.0258 4.58126 11.5184H0.483311C0.407167 11.5186 0.332126 11.5368 0.264286 11.5716C0.196447 11.6064 0.137722 11.6569 0.0928834 11.7188C0.0480451 11.7808 0.0183583 11.8526 0.00623531 11.9283C-0.00588771 12.0039 -0.000104983 12.0815 0.0231136 12.1545L1.20841 15.8655L0.0224691 19.6531C-0.000416756 19.726 -0.00591699 19.8034 0.00641423 19.8788C0.0187454 19.9543 0.0485611 20.0258 0.0934444 20.0875C0.138328 20.1491 0.197016 20.1993 0.264751 20.2339C0.332486 20.2685 0.407363 20.2865 0.483311 20.2866H4.58062C4.42722 20.7792 4.34923 21.2698 4.56386 21.7189C4.86293 22.3472 5.60027 22.5886 6.2519 22.8034C6.67085 22.9416 7.14522 23.0974 7.31474 23.3122C7.48425 23.5271 7.53194 24.0359 7.57255 24.4804C7.637 25.2002 7.70532 25.944 8.24093 26.3768C8.77654 26.8097 9.53838 26.7059 10.2126 26.615C10.6528 26.556 11.1517 26.4891 11.4017 26.6111C11.6518 26.7332 11.8974 27.1596 12.1217 27.5392C12.4749 28.1357 12.8745 28.8113 13.5532 28.967C13.6466 28.9886 13.7422 28.9995 13.8381 28.9995C14.3872 28.9995 14.9054 28.6542 15.4088 28.3193C15.8039 28.0597 16.2125 27.7845 16.5006 27.7845C16.7888 27.7845 17.1974 28.0565 17.5925 28.3193C18.1822 28.712 18.792 29.1176 19.4481 28.9683C20.1268 28.8119 20.5264 28.1363 20.8796 27.5405C21.1039 27.1608 21.3591 26.7299 21.5996 26.6124C21.84 26.495 22.3485 26.5573 22.7887 26.6163C23.4629 26.7072 24.2267 26.811 24.7604 26.3781C25.294 25.9453 25.363 25.2015 25.4281 24.4824C25.4687 24.0359 25.5145 23.529 25.6859 23.3142C25.8574 23.0994 26.3304 22.9436 26.7487 22.8054C27.3997 22.5912 28.1371 22.351 28.4361 21.7209C28.6508 21.2717 28.5728 20.7811 28.4194 20.2885H32.5167C32.5926 20.2885 32.6675 20.2705 32.7352 20.2359C32.803 20.2013 32.8617 20.1511 32.9066 20.0894C32.9514 20.0277 32.9813 19.9562 32.9936 19.8808C33.0059 19.8053 33.0004 19.728 32.9775 19.6551L31.7916 15.8681ZM5.43527 10.5105C5.5558 10.2568 6.08496 10.0828 6.55161 9.92643C7.12653 9.73692 7.72144 9.54157 8.07078 9.09829C8.42011 8.65502 8.47941 8.02094 8.53484 7.41087C8.57996 6.91827 8.63023 6.35948 8.84486 6.18619C9.05949 6.01291 9.60219 6.08884 10.0837 6.15374C10.6876 6.23422 11.3115 6.31859 11.8239 6.06872C12.3253 5.82405 12.6444 5.28472 12.9531 4.76227C13.2064 4.33392 13.4939 3.84846 13.7691 3.78486C14.0218 3.7271 14.4781 4.02889 14.8764 4.29563C15.3895 4.64025 15.9199 4.99396 16.5 4.99396C17.0801 4.99396 17.6105 4.64025 18.1249 4.29758C18.5251 4.03084 18.9795 3.72905 19.2322 3.78681C19.5074 3.85171 19.7949 4.33587 20.0482 4.76422C20.3569 5.28342 20.6759 5.82599 21.1774 6.07067C21.6885 6.32054 22.3124 6.23682 22.9176 6.15569C23.3991 6.09079 23.945 6.01745 24.1564 6.18814C24.3678 6.35883 24.422 6.92022 24.4664 7.41347C24.5219 8.02418 24.5786 8.65567 24.9305 9.10089C25.2824 9.54611 25.8735 9.73822 26.4484 9.93292C26.915 10.0861 27.4442 10.2574 27.5647 10.517C27.664 10.7241 27.5409 11.1297 27.3978 11.5275H24.2757C23.5111 10.1131 22.382 8.93234 21.0071 8.10965C19.6323 7.28697 18.0626 6.85277 16.4633 6.85277C14.864 6.85277 13.2943 7.28697 11.9194 8.10965C10.5445 8.93234 9.4154 10.1131 8.65086 11.5275H5.60221C5.45912 11.1232 5.33601 10.7176 5.43527 10.5105ZM23.1529 11.521H9.77364C10.4895 10.3875 11.4779 9.45421 12.6473 8.80761C13.8167 8.16101 15.1292 7.82201 16.4633 7.82201C17.7973 7.82201 19.1098 8.16101 20.2792 8.80761C21.4486 9.45421 22.437 10.3875 23.1529 11.521ZM27.5647 21.2971C27.4442 21.5508 26.915 21.7248 26.4484 21.8779C25.8735 22.0674 25.2786 22.2628 24.9292 22.7061C24.5799 23.1493 24.5206 23.7834 24.4652 24.3935C24.42 24.8861 24.3698 25.4449 24.1551 25.6182C23.9405 25.7914 23.3978 25.7155 22.9163 25.6506C22.3124 25.5695 21.6885 25.4858 21.1761 25.7356C20.6747 25.9803 20.3556 26.5196 20.0469 27.0421C19.7936 27.4704 19.5061 27.9559 19.2309 28.0195C18.9776 28.0772 18.5219 27.7755 18.1236 27.5087C17.608 27.166 17.0775 26.8123 16.4987 26.8123C15.9199 26.8123 15.3882 27.166 14.8738 27.5087C14.4736 27.7755 14.0192 28.0779 13.7665 28.0195C13.4913 27.9546 13.2038 27.4704 12.9505 27.0421C12.6418 26.5196 12.3228 25.9803 11.8213 25.7356C11.3102 25.4858 10.6863 25.5701 10.0811 25.6506C9.59961 25.7155 9.05369 25.7888 8.84228 25.6182C8.63088 25.4475 8.57673 24.8861 8.53226 24.3928C8.47683 23.7821 8.42011 23.1506 8.0682 22.7054C7.71628 22.2602 7.12395 22.0668 6.54903 21.8773C6.08239 21.7241 5.55322 21.5528 5.43269 21.2964C5.33344 21.0894 5.45654 20.6837 5.59963 20.2859H8.68888C9.45974 21.6804 10.5867 22.8422 11.9531 23.6511C13.3195 24.4599 14.8757 24.8864 16.4607 24.8864C18.0457 24.8864 19.6019 24.4599 20.9683 23.6511C22.3347 22.8422 23.4616 21.6804 24.2325 20.2859H27.3952C27.5409 20.6844 27.664 21.09 27.5647 21.2971ZM9.82133 20.2866H23.1052C22.385 21.3994 21.4003 22.3137 20.2405 22.9466C19.0807 23.5795 17.7824 23.911 16.4633 23.911C15.1441 23.911 13.8458 23.5795 12.686 22.9466C11.5262 22.3137 10.5416 21.3994 9.82133 20.2866ZM1.14267 19.313L2.17393 16.0135C2.20422 15.9172 2.20422 15.8138 2.17393 15.7175L1.14267 12.4946H31.8535L30.8222 15.7175C30.7919 15.8138 30.7919 15.9172 30.8222 16.0135L31.8535 19.313H1.14267ZM15.4301 14.3592C15.3772 14.1885 15.1607 14.106 14.9396 14.106C14.7185 14.106 14.5019 14.1885 14.4491 14.3592L13.5551 17.3277C13.5498 17.3452 13.5466 17.3633 13.5455 17.3816C13.5455 17.5614 13.8194 17.6931 14.0263 17.6931C14.1462 17.6931 14.2428 17.6542 14.2712 17.5516L14.4375 16.9422H15.4494L15.6131 17.5503C15.6415 17.6529 15.7382 17.6918 15.858 17.6918C16.0649 17.6918 16.3389 17.562 16.3389 17.3803C16.3378 17.362 16.3345 17.3439 16.3292 17.3264L15.4301 14.3592ZM14.589 16.3581L14.9396 15.0536L15.2909 16.3581H14.589ZM18.8248 17.0298H17.7291V14.3624C17.7291 14.2021 17.5416 14.134 17.354 14.134C17.1664 14.134 16.9789 14.2021 16.9789 14.3624V17.4614C16.9789 17.6172 17.1426 17.6951 17.3063 17.6951H18.8255C18.9699 17.6951 19.042 17.5296 19.042 17.3641C19.042 17.1986 18.9692 17.0311 18.8248 17.0311V17.0298Z" fill="#04178B"/>
</svg>
